Coordinates
version=1
nRows=17
nColumns=24
inDegrees=yes

Units are S.I. units (second, meters, Newtons, ...)
Angles are in degrees.

endheader
time	pelvis_tilt	pelvis_list	pelvis_rotation	pelvis_tx	pelvis_ty	pelvis_tz	hip_flexion_r	hip_adduction_r	hip_rotation_r	knee_angle_r	ankle_angle_r	subtalar_angle_r	mtp_angle_r	hip_flexion_l	hip_adduction_l	hip_rotation_l	knee_angle_l	ankle_angle_l	subtalar_angle_l	mtp_angle_l	lumbar_extension	lumbar_bending	lumbar_rotation
      0.92516667	     -3.83684962	      0.82759973	     -4.10114842	     -0.13236480	      0.90599699	      0.33500305	    -12.97925240	      2.51742869	      0.62293720	     -7.17865625	     11.43682610	      5.79501423	      8.05274590	     27.78870222	      0.66827062	     -4.51303775	     -9.95030824	     -1.93569098	     -9.89311264	     -1.71490704	     -6.95610768	     -1.09666865	      8.11638324
      0.92933333	     -3.90214342	      0.85636118	     -4.19711220	     -0.12651712	      0.90475795	      0.33480231	    -12.98692118	      2.39888494	      0.59240244	     -7.83668129	     11.64191004	      6.17571164	      8.65968570	     27.79349602	      0.70812436	     -4.23580647	     -9.87339157	     -1.86879804	     -9.95698616	     -1.84845315	     -6.84242895	     -1.19600754	      8.28139774
      0.93350000	     -4.01096331	      0.84772524	     -4.31803111	     -0.12072471	      0.90350361	      0.33469989	    -12.94097388	      2.33745473	      0.79281918	     -8.50530044	     11.78222206	      6.20802991	      8.84105324	     27.87139220	      0.68469335	     -4.03700895	     -9.94659651	     -1.80189448	     -9.98897582	     -1.87510084	     -6.67874449	     -1.23578644	      8.27212088
      0.93766667	     -4.09866234	      0.87142801	     -4.41705009	     -0.11488948	      0.90231645	      0.33452481	    -12.87917741	      2.23506267	      0.87424500	     -9.25161939	     11.93704112	      6.38137746	      9.07036395	     27.91151956	      0.71690719	     -3.81682068	    -10.07531813	     -1.76150713	    -10.06932292	     -1.89653552	     -6.53311215	     -1.32068697	      8.30635235
      0.94183333	     -4.15166221	      0.93939170	     -4.50537631	     -0.10898354	      0.90124235	      0.33430483	    -12.82567768	      2.07578016	      0.86698534	    -10.04472179	     11.95586805	      6.54758879	     12.34187990	     27.87693298	      0.81411065	     -3.59018732	    -10.20295921	     -1.83875866	    -10.27900943	     -2.09270476	     -6.40940774	     -1.46050686	      8.30546305
      0.94600000	     -4.24288613	      0.95826688	     -4.58291884	     -0.10315175	      0.90013198	      0.33408503	    -12.70527410	      1.98216847	      0.94215351	    -10.89662714	     12.04703743	      6.70159743	     12.40391319	     27.94379890	      0.85523426	     -3.41428439	    -10.53343139	     -1.81365074	    -10.34846227	     -2.08331599	     -6.26431412	     -1.53158397	      8.30237463
      0.95016667	     -4.32703760	      1.02065499	     -4.65568271	     -0.09727272	      0.89909159	      0.33384761	    -12.55044041	      1.83720993	      0.96597949	    -11.82971412	     12.11045691	      6.89344448	     12.50471580	     27.97738637	      0.95041766	     -3.26042380	    -10.87156081	     -1.89765708	    -10.51018232	     -2.06706264	     -6.11814201	     -1.66878806	      8.27542261
      0.95433333	     -4.41009339	      1.08991992	     -4.71793633	     -0.09139486	      0.89809997	      0.33355307	    -12.35842623	      1.67995035	      0.94993251	    -12.83270476	     12.13141317	      7.13021644	     12.65361007	     28.00961881	      1.06677332	     -3.10966500	    -11.26137805	     -2.02382901	    -10.72287671	     -2.03989312	     -5.97089028	     -1.80567824	      8.23286265
      0.95850000	     -4.42858793	      1.20031773	     -4.76251721	     -0.08546222	      0.89726354	      0.33318795	    -12.19798043	      1.46010232	      0.81550723	    -13.90545237	     12.12661195	      7.51724124	     13.42654959	     27.93536252	      1.25530090	     -2.91553594	    -11.62199624	     -2.21119751	    -11.10073762	     -1.88025916	     -5.89572322	     -1.99505461	      8.18483275
      0.96266667	     -4.54327677	      1.25118205	     -4.78200638	     -0.07961207	      0.89631790	      0.33281135	    -11.90179378	      1.32849328	      0.75525278	    -15.03394234	     12.01841698	      7.75041209	     13.86003148	     28.03878076	      1.37041415	     -2.80981736	    -12.17140544	     -2.38460022	    -11.28915394	     -1.78401001	     -5.71567962	     -2.08535610	      8.09457342
      0.96683333	     -4.62362822	      1.35545635	     -4.83554742	     -0.07372711	      0.89550563	      0.33251754	    -11.60437326	      1.13629069	      0.76977196	    -16.22689230	     11.89248828	      7.86672045	     14.07416066	     28.07183299	      1.52713532	     -2.77936457	    -12.69238830	     -2.56123187	    -11.50119415	     -1.73720615	     -5.56555211	     -2.30063990	      7.97116527
      0.97100000	     -4.67078081	      1.45223415	     -4.84575035	     -0.06785075	      0.89479950	      0.33205654	    -11.30401981	      0.93126195	      0.63291333	    -17.47087554	     11.58556581	      8.12769458	     18.00871374	     28.05249176	      1.72406121	     -2.62717121	    -13.19222329	     -2.85540353	    -12.00386103	     -0.80510287	     -5.46846843	     -2.44211601	      7.86066804
      0.97516667	     -4.74075978	      1.56528497	     -4.84563074	     -0.06198053	      0.89408844	      0.33164617	    -10.93250811	      0.72010786	      0.51584957	    -18.81420111	     11.36845512	      8.36536600	     18.07669892	     28.10776428	      1.91158224	     -2.64130594	    -13.83007649	     -2.94121773	    -12.09231160	     -0.78110808	     -5.33463996	     -2.66625115	      7.71086794
      0.97933333	     -4.80661264	      1.67299878	     -4.83867719	     -0.05614920	      0.89345194	      0.33118172	    -10.51791780	      0.50485883	      0.37719377	    -20.22828215	     11.06606255	      8.65293942	     18.19583999	     28.14906331	      2.10795686	     -2.61673820	    -14.46028240	     -3.07344416	    -12.32326258	     -0.74795691	     -5.21457598	     -2.85054318	      7.55480979
      0.98350000	     -4.85935224	      1.78459743	     -4.81304034	     -0.05035247	      0.89289036	      0.33064404	    -10.06341528	      0.27262479	      0.17838760	    -21.73393768	     10.74792845	      8.99742450	     18.44126554	     28.16894635	      2.32442249	     -2.56040063	    -15.07917200	     -3.22561056	    -12.60044701	     -0.68553076	     -5.11931031	     -2.99584206	      7.38140952
      0.98766667	     -4.91396511	      1.91015058	     -4.78633789	     -0.04456989	      0.89239103	      0.33012802	     -9.56930455	      0.02462331	      0.00338052	    -23.28629545	     10.31474663	      9.27743468	     18.71755223	     28.19618856	      2.54836887	     -2.54692963	    -15.72520316	     -3.30809149	    -12.83986903	     -0.61763428	     -5.01895204	     -3.20158739	      7.19307824
      0.99183333	     -4.95935176	      2.03998408	     -4.74754412	     -0.03881523	      0.89196096	      0.32958832	     -9.04346552	     -0.23481262	     -0.19142789	    -24.89679073	      9.80769138	      9.55587060	     19.03027055	     28.21473258	      2.78063326	     -2.54177420	    -16.38235818	     -3.33568141	    -13.05539248	     -0.54284503	     -4.93329727	     -3.40907120	      6.99381971
